<svg xmlns="http://www.w3.org/2000/svg" viewBox="0 0 64 64" role="img" aria-label="WhatsApp">
  <circle cx="32" cy="32" r="30" fill="#25D366"/>
  <path fill="#fff" d="M45.6 37.9c-.7-.4-4.1-2-4.7-2.2-.6-.2-1-.4-1.5.4-.4.7-1.7 2.2-2.1 2.6-.4.5-.8.5-1.5.2-4.1-2-6.8-3.6-9.5-8.2-.7-1.2.7-1.1 2-3.7.2-.5.1-.9-.1-1.3-.2-.4-1.5-3.6-2-4.9-.5-1.3-1.1-1.1-1.5-1.1h-1.3c-.5 0-1.3.2-1.9.9-.7.7-2.5 2.5-2.5 6s2.6 6.9 2.9 7.4c.4.5 5.1 7.8 12.3 10.9 4.6 2 6.4 2.2 8.7 1.9 1.3-.2 4.1-1.7 4.7-3.3.6-1.6.6-3 .4-3.3-.2-.3-.7-.5-1.4-.8z"/>
  <path fill="#fff" d="M32.1 10.7c-11.9 0-21.5 9.6-21.5 21.5 0 3.8 1 7.5 2.9 10.8l-3.1 11.3 11.6-3c3.2 1.7 6.6 2.6 10.2 2.6 11.9 0 21.5-9.6 21.5-21.5S44 10.7 32.1 10.7zm0 39.5c-3.2 0-6.2-.8-8.9-2.4l-.6-.4-6.9 1.8 1.8-6.7-.4-.7c-1.8-2.9-2.7-6.2-2.7-9.6 0-9.9 8-17.9 17.9-17.9s17.9 8 17.9 17.9-8.1 18-18.1 18z"/>
</svg>
